<svg width="41" height="134" viewBox="0 0 41 134" fill="none" xmlns="http://www.w3.org/2000/svg">
<path d="M40.25 133.51H35.2448L20.2917 117.964L5.33333 133.51H0.328125L20.2917 112.755L40.25 133.51Z" fill="#3B3B3B"/>
<path d="M40.25 111.151H35.2448L20.2917 95.6042L5.33333 111.151H0.328125L20.2917 90.3959L40.25 111.151Z" fill="#3B3B3B"/>
<path d="M40.25 88.7969H35.2448L20.2917 73.2396L5.33333 88.7969H0.328125L20.2917 68.0417L40.25 88.7969Z" fill="#3B3B3B"/>
<path d="M40.25 66.4375H35.2448L20.2917 50.8802L5.33333 66.4375H0.328125L20.2917 45.6771L40.25 66.4375Z" fill="#3B3B3B"/>
<path d="M40.25 44.073H35.2448L20.2917 28.5209L5.33333 44.073H0.328125L20.2917 23.3177L40.25 44.073Z" fill="#3B3B3B"/>
<path d="M40.25 21.7136H35.2448L20.2917 6.1615L5.33333 21.7136H0.328125L20.2917 0.958374L40.25 21.7136Z" fill="#3B3B3B"/>
</svg>
