<svg width="271" height="99" viewBox="0 0 271 99" fill="none" xmlns="http://www.w3.org/2000/svg">
<path d="M61.1146 44.1693V122.611C63.2482 122.611 65.3817 122.829 67.5152 123.256L74.7588 124.744C79.4526 126.024 83.9278 126.878 88.6112 126.878C96.5001 126.878 103.317 124.525 109.072 119.197L110.998 117.5L119.303 127.512L80.0875 164.605H79.0259C71.137 164.605 63.883 163.106 57.2847 161.836C54.0792 161.191 50.8841 160.338 47.8971 159.911C44.9206 159.484 41.9336 159.057 39.1652 159.057C34.0448 159.057 29.3614 160.983 25.0943 164.178L23.3875 165.458L15.0719 157.143L16.1439 155.228C20.4006 149.046 22.5341 143.498 22.5341 136.036V55.68C22.5341 53.3383 22.1074 50.3514 21.254 48.0097C20.1924 45.8762 19.1308 44.8146 17.2055 44.8146C14.4371 44.8146 11.242 46.511 8.25503 48.2178L5.69479 49.9247L0.584717 37.3524L41.0802 3.02856L42.5685 3.45527C52.1642 6.44222 56.858 13.051 58.9811 20.7213C60.2612 24.5616 60.6879 28.402 60.9065 32.4505C61.1146 36.2805 61.1146 40.3394 61.1146 44.1693ZM115.9 127.304L110.779 121.122C92.0248 137.962 70.2836 124.099 58.5544 125.171V44.1693C58.5544 27.5486 58.5544 11.3441 41.7151 5.80736L3.56125 37.9873L6.97491 46.0947C19.5576 38.414 24.4595 42.6811 25.0943 55.68V136.036C24.8862 145.84 22.1074 150.96 18.2774 156.716L23.6061 162.044C40.4454 149.68 50.8841 162.044 79.0259 162.044L115.9 127.304Z" fill="white"/>
<path d="M242.711 72.946C242.711 88.7238 236.311 108.113 223.312 118.562L165.55 164.813L164.27 164.386C134.64 154.801 110.765 113.015 110.765 83.3951C110.765 71.2392 115.459 54.1917 125.69 45.8762L178.123 3.24713H178.976C216.495 3.24713 242.711 37.9873 242.711 72.946ZM178.976 5.80737L127.397 47.7911C91.5844 84.03 131.653 151.169 165.124 162.044L221.605 116.647C261.039 80.4082 233.116 5.80737 178.976 5.80737ZM195.18 124.952C161.929 124.952 135.92 60.5819 157.443 37.9873C198.157 37.9873 210.521 97.4556 195.18 124.952ZM199.01 96.8208C199.01 71.2392 185.793 41.401 158.515 40.5475C153.821 46.0947 152.114 53.765 152.114 61.4354C152.114 84.2486 169.38 120.904 193.682 122.402C197.522 114.722 199.01 105.563 199.01 96.8208Z" fill="white"/>
<path d="M343.509 130.499L343.301 131.134L301.952 164.605H301.099C292.565 164.605 286.601 155.228 281.699 144.352C276.797 132.841 272.53 117.709 268.055 102.784C263.58 87.8703 259.313 72.946 254.203 61.862C248.874 50.3513 243.754 44.596 238.425 44.596C236.51 44.596 234.377 45.4494 232.462 46.7295L230.12 48.2178L224.146 37.1338L264.652 3.24709H266.994C278.712 3.24709 288.09 23.5 294.698 42.0358C301.734 61.6539 306.854 82.9684 309.196 90.6387C310.903 95.5406 312.391 100.661 314.306 105.771C315.586 109.185 316.866 112.38 318.573 115.367C326.035 95.1139 338.399 59.3018 338.399 42.2543C338.399 35.8537 334.351 31.3785 328.169 31.3785C322.195 31.3785 315.159 35.4374 309.404 38.8407L307.281 40.3393L300.454 28.6101L301.952 27.1218C314.306 15.3926 334.986 0.478699 353.74 0.478699C370.579 0.478699 378.26 10.2825 378.26 25.8417C378.26 54.1917 356.3 105.136 343.509 130.499ZM370.798 9.21057C353.532 -6.34861 323.902 9.85584 303.649 29.0368L308.134 36.7071C324.974 26.2684 333.071 26.6951 339.461 35.2189C345.216 42.8892 333.071 84.8834 319 121.33C302.161 95.3325 290.223 2.39368 265.714 5.80733L227.341 37.7791L230.973 44.596C265.714 21.5747 272.53 162.044 301.099 162.044L341.168 129.427C341.168 129.427 391.467 30.0984 370.798 9.21057Z" fill="white"/>
</svg>
