<svg width="217" height="960" viewBox="0 0 217 960" fill="none" xmlns="http://www.w3.org/2000/svg">
<path d="M158.524 69.1002C151.657 77.4357 145.04 87.9767 138.18 98.0232C125.182 117.638 110.725 138.963 94.5484 138.963C61.2143 138.963 28.8613 81.6034 28.8613 53.4182C28.8613 35.2795 38.9079 0.226532 64.6443 0.226532H65.8687L101.903 38.4661L94.5484 50.4749L92.0995 48.756C90.8673 47.7749 89.3995 47.2883 88.1751 47.2883C82.7829 47.2883 77.6341 54.1482 73.223 64.9325C69.7931 73.7624 67.3364 83.5657 66.3631 89.4444C68.5687 89.9389 70.523 90.1822 72.7364 90.1822C85.7263 90.1822 96.7539 72.5302 108.763 51.456C111.706 46.3071 114.649 41.4016 117.585 36.5039C120.528 31.8496 123.715 27.1873 126.658 23.5141C132.788 15.6652 139.891 9.78643 148.47 9.78643C170.533 9.78643 194.551 39.4473 205.335 53.9048C205.829 54.6426 207.54 57.0915 209.259 59.297C210.24 60.5214 210.978 61.7458 211.708 62.727C211.952 63.2214 212.446 63.7081 212.446 64.2025C212.933 64.6892 213.184 65.1836 213.184 65.427C215.876 72.0435 216.37 79.1546 216.37 85.7712C216.37 92.8744 215.389 104.153 212.446 114.694C209.503 124.984 204.354 135.525 195.532 138.712L193.821 139.449L148.47 96.3122L157.543 84.2956L159.992 86.509C161.217 87.4822 162.441 88.22 163.422 88.22C166.852 88.22 170.039 84.5468 172.495 77.9302C174.944 71.5569 175.925 64.4459 175.925 60.7726C175.925 58.3159 175.682 56.1104 175.431 53.6615C170.039 56.6048 164.403 61.997 158.524 69.1002ZM177.393 49.7371C183.28 69.5947 170.533 99.7421 158.03 88.7145L152.394 96.061L194.551 136.02C211.952 129.646 217.595 82.5845 210.484 66.4081C210.484 66.4081 174.944 10.7675 147.002 12.7298C123.715 14.1975 105.333 79.1546 80.0829 91.9011C74.9419 93.8555 69.0553 93.3689 62.9254 91.65C67.3364 63.4647 80.3341 36.5039 93.8106 46.3071L98.2216 38.9528L64.6443 3.16985C43.3189 3.16985 31.7968 32.0929 31.7968 53.4182C31.7968 87.9767 68.5687 136.02 94.5484 136.02C122.734 136.02 148.964 58.8104 177.393 49.7371Z" fill="white"/>
<path d="M75.6719 315.678L62.1954 322.294L29.5913 279.4V278.419C29.5913 267.141 42.3378 259.056 54.1032 253.664C63.9064 249.002 74.9419 245.329 82.2885 243.123L74.4475 236.012V204.883C66.112 203.172 57.0465 200.472 49.6922 195.575C40.3756 188.95 31.3102 179.147 23.218 168.857C15.377 158.56 8.02262 147.532 1.89266 138.459L0.424927 136.01L12.1904 127.431L13.9093 129.88C34.9834 158.316 59.7387 164.195 94.0539 166.895C99.446 167.138 105.089 167.633 110.725 168.363C116.604 169.101 122.49 170.082 127.639 172.287C146.264 179.642 156.805 191.894 167.103 207.089C171.514 202.191 173.72 197.286 173.72 190.669C173.72 181.353 169.058 171.793 163.422 163.708L161.711 161.008L173.72 153.905L175.187 155.373C190.634 170.325 215.138 197.529 215.138 221.798C215.138 246.31 176.169 261.262 141.61 273.27C123.715 279.644 106.07 285.279 92.5862 291.409C78.8585 297.782 71.9986 303.418 71.9986 308.567C71.9986 310.035 72.4852 311.51 73.7097 312.978L75.6719 315.678ZM63.1765 318.613L71.2608 314.697C67.3364 309.548 69.0553 303.661 73.9608 299.25C101.165 275.233 212.203 260.281 212.203 221.798C212.203 200.967 192.345 175.96 173.225 157.578L165.871 161.989C173.963 173.755 183.028 192.631 170.776 207.34C169.552 208.808 168.328 210.276 166.852 211.751C156.562 196.556 146.264 182.577 126.658 174.979C98.9594 163.952 47.73 180.371 11.4526 131.599L4.34935 136.748C21.5069 162.484 34.4968 180.371 51.4111 193.118C57.7843 197.529 66.8498 200.472 77.3908 202.435V234.788L88.1751 244.347C59.2521 253.664 32.5346 263.224 32.5346 278.419L63.1765 318.613ZM106.07 238.712V206.602C124.209 208.808 142.835 211.751 157.292 218.368C144.059 226.452 125.182 232.582 106.07 238.712ZM109.006 210.032V234.788C116.36 232.339 123.958 229.89 131.312 227.19C137.929 224.741 144.553 222.041 150.676 218.854C137.686 213.957 122.977 211.751 109.006 210.032Z" fill="white"/>
<path d="M196.513 438.465C194.307 440.184 192.102 441.652 190.14 443.12C187.934 444.595 186.215 445.82 184.747 447.288C181.804 449.988 180.093 452.68 180.093 455.623C180.093 457.829 181.074 460.277 182.299 462.483L183.523 464.94L171.02 472.781L143.321 432.587L143.078 431.849C142.835 430.373 142.591 428.906 142.591 427.438C142.591 415.178 152.881 406.599 161.711 399.739L168.084 394.347C170.29 392.628 172.001 390.917 173.476 389.198C176.663 386.012 178.374 382.825 178.374 379.638C178.374 372.778 173.225 367.873 165.384 364.2C157.787 360.762 148.227 359.294 142.097 359.294C133.275 359.294 124.209 360.762 115.63 363.218C93.5673 370.078 68.3175 391.404 68.3175 415.178C68.3175 428.168 75.6719 439.933 85.2318 449.744L86.9507 451.699L77.3908 462.483L75.1853 460.529C69.5498 455.623 63.6632 450.717 58.5143 445.576C53.1222 440.428 48.2245 435.035 43.8134 429.4C35.2346 417.635 29.5913 404.15 29.5913 386.993C29.5913 344.836 72.7364 314.195 111.463 314.195C145.283 314.195 170.533 336.007 191.121 359.051C204.354 373.759 215.138 386.749 215.138 408.561C215.138 424.008 205.335 432.335 196.513 438.465ZM188.915 361.013C168.084 337.482 138.667 311.495 98.4728 318.362C57.2899 328.166 32.5346 354.64 32.5346 386.993C32.5346 418.608 51.6544 436.26 77.1475 458.323L83.0263 451.699C41.1134 409.056 83.0263 371.059 114.893 360.518C145.283 351.94 168.814 357.826 177.636 370.322C195.775 394.347 140.386 403.664 146.021 431.354L171.758 468.856L179.599 463.959C166.609 438.952 212.203 440.184 212.203 408.561C212.203 392.142 206.811 380.619 188.915 361.013Z" fill="white"/>
<path d="M73.223 619.103L60.4765 628.42L29.5913 593.853V592.629C29.5913 576.696 46.2622 560.519 64.8876 548.51L28.8613 504.392L30.0857 502.673C39.889 486.497 58.7576 481.842 75.4286 481.842H156.562C159.254 481.842 162.684 481.599 165.384 480.618C167.833 479.393 169.058 478.161 169.058 475.956C169.058 472.769 167.103 469.096 164.898 465.422L163.179 462.722L175.925 456.349L215.876 503.898L214.652 505.86C205.335 518.606 196.27 523.998 182.055 525.717L215.389 566.649L214.895 568.117C208.773 588.712 195.045 610.038 169.795 610.038C146.021 610.038 126.164 593.853 113.425 575.966C106.8 578.415 96.2594 583.563 86.9507 589.693C76.1664 596.797 68.812 604.645 68.812 611.262C68.812 613.224 69.5498 615.179 71.0175 616.654L73.223 619.103ZM60.971 624.495L68.812 618.616C56.5521 604.889 85.2318 583.069 114.649 572.285C131.069 596.797 152.881 608.319 172.739 607.094C189.402 605.87 204.354 593.367 212.203 567.387L176.412 523.268C194.064 522.287 202.886 516.895 212.203 504.149L175.187 460.03L167.346 463.947C176.663 478.656 171.758 484.291 156.562 484.786H75.4286C53.6166 484.534 39.3945 493.113 32.5346 504.149L65.6254 544.837L73.223 538.95C64.8876 527.428 71.2608 525.223 85.4751 523.755C104.352 522.036 135.48 522.531 160.973 523.268L174.701 542.38C164.16 581.358 118.817 556.603 106.557 533.072C81.0641 537.483 32.5346 568.117 32.5346 592.629L60.971 624.495ZM77.3908 539.445L69.5498 545.567C83.0263 537.483 96.9972 531.847 106.07 530.128L108.276 529.885L109.257 531.596C116.36 545.567 135.723 559.789 151.413 559.789C161.954 559.789 168.328 553.165 171.514 542.875L159.254 526.204C146.508 525.717 133.761 525.474 121.023 525.474C117.341 525.474 104.595 525.223 92.5862 525.961C86.7074 526.455 81.3152 527.185 77.3908 528.166C75.4286 528.904 73.9608 529.391 73.223 530.128L72.4853 530.615C72.4853 531.353 72.7364 532.577 73.4664 533.802C73.9608 535.034 74.9419 536.258 75.6719 537.239L77.3908 539.445Z" fill="white"/>
<path d="M77.3908 696.305L65.1309 705.865L28.8613 661.252L30.0857 659.541C39.889 643.356 58.7576 638.702 75.4286 638.702H156.068C158.768 638.702 162.198 638.459 164.898 637.234C167.346 636.253 168.571 635.029 168.571 632.823C168.571 629.636 166.609 625.955 164.403 622.282L162.684 619.582L175.925 612.965L215.876 661.008L214.652 662.727C201.418 680.858 188.915 683.315 168.084 683.315L85.4751 683.558C83.0263 683.558 79.5963 683.558 76.653 684.296C73.4664 685.277 72.7364 686.25 72.7364 687.726C72.7364 689.688 73.9608 691.65 75.6719 694.099L77.3908 696.305ZM65.6254 701.697L73.223 695.81C64.8876 684.296 72.7364 680.371 85.4751 680.615L168.084 680.371C191.607 680.615 201.418 675.717 212.203 661.008L175.187 616.647L166.852 620.806C175.925 635.272 171.271 641.151 156.068 641.645H75.4286C53.6166 641.402 39.3945 649.981 32.5346 661.008L65.6254 701.697Z" fill="white"/>
<path d="M138.667 755.617V818.612H124.209L104.108 796.792V755.617C99.6972 755.617 92.5862 755.861 86.2129 756.355C81.8018 756.842 78.1286 757.58 75.4286 758.561C72.4853 759.785 72.4853 760.766 72.4853 760.766C72.4853 761.747 72.7364 762.721 73.4664 763.953C73.9608 765.177 74.6908 766.158 75.6719 767.383L77.3908 769.832L65.1309 778.654L28.8613 734.292L30.0857 732.573C39.889 716.891 59.0088 711.742 75.4286 711.742H156.562C159.254 711.742 162.684 711.499 165.384 710.518C167.833 709.537 169.058 708.061 169.058 706.107C169.058 702.92 167.103 699.239 164.898 695.566L163.179 692.866L175.925 686.249L215.876 734.049L214.652 735.76C209.997 742.133 204.605 748.02 197.251 751.693L215.138 773.262V774.243C215.138 778.167 214.652 782.092 214.165 786.008C213.67 789.689 212.689 793.362 211.952 797.036C210.484 804.39 209.016 811.501 209.016 818.612C209.016 824.734 210.484 830.621 213.67 835.77L215.389 838.219L205.092 844.349L168.084 798.755V797.774C168.084 787.97 169.795 780.129 171.758 773.018C172.739 769.588 173.476 766.402 174.206 762.972C174.701 760.766 175.187 758.561 175.431 756.355C172.982 756.598 170.533 756.598 168.084 756.598C158.273 756.598 148.47 755.861 138.667 755.617ZM168.084 753.655C172.001 753.655 175.431 753.412 178.617 753.168C178.131 765.664 171.02 775.718 171.02 797.774L205.829 840.424L211.222 837.238C198.962 816.893 212.203 800.222 212.203 774.243L192.345 750.468C200.437 747.525 206.073 742.376 212.203 734.049L175.187 689.93L167.346 694.09C176.412 708.556 171.758 714.191 156.562 714.686H75.4286C53.6166 714.686 39.3945 723.264 32.5346 734.049L65.6254 774.737L73.223 769.094C64.8876 757.58 71.2608 755.123 85.4751 753.655C91.6051 753.168 98.9594 752.917 107.052 752.674V795.568L125.434 815.669H135.723V752.674C147.002 752.917 158.03 753.168 168.084 753.655Z" fill="white"/>
<path d="M77.3908 902.43L65.1309 911.99L28.8613 867.377L30.0857 865.666C39.889 849.482 58.7576 844.827 75.4286 844.827H156.068C158.768 844.827 162.198 844.584 164.898 843.36C167.346 842.379 168.571 841.154 168.571 838.949C168.571 835.762 166.609 832.081 164.403 828.408L162.684 825.708L175.925 819.091L215.876 867.134L214.652 868.853C201.418 886.984 188.915 889.44 168.084 889.44L85.4751 889.684C83.0263 889.684 79.5963 889.684 76.653 890.421C73.4664 891.403 72.7364 892.376 72.7364 893.851C72.7364 895.814 73.9608 897.776 75.6719 900.225L77.3908 902.43ZM65.6254 907.822L73.223 901.936C64.8876 890.421 72.7364 886.497 85.4751 886.74L168.084 886.497C191.607 886.74 201.418 881.843 212.203 867.134L175.187 822.772L166.852 826.932C175.925 841.398 171.271 847.276 156.068 847.771H75.4286C53.6166 847.527 39.3945 856.106 32.5346 867.134L65.6254 907.822Z" fill="white"/>
<path d="M196.513 1026.21C194.307 1027.92 192.102 1029.39 190.14 1030.86C187.934 1032.34 186.215 1033.56 184.747 1035.03C181.804 1037.73 180.093 1040.42 180.093 1043.36C180.093 1045.57 181.074 1048.02 182.299 1050.22L183.523 1052.68L171.02 1060.52L143.321 1020.33L143.078 1019.59C142.835 1018.11 142.591 1016.65 142.591 1015.18C142.591 1002.92 152.881 994.339 161.711 987.479L168.084 982.087C170.29 980.368 172.001 978.657 173.476 976.938C176.663 973.752 178.374 970.565 178.374 967.378C178.374 960.518 173.225 955.613 165.384 951.94C157.787 948.502 148.227 947.034 142.097 947.034C133.275 947.034 124.209 948.502 115.63 950.959C93.5673 957.818 68.3175 979.144 68.3175 1002.92C68.3175 1015.91 75.6719 1027.67 85.2318 1037.48L86.9507 1039.44L77.3908 1050.22L75.1853 1048.27C69.5498 1043.36 63.6632 1038.46 58.5143 1033.32C53.1222 1028.17 48.2245 1022.78 43.8134 1017.14C35.2346 1005.37 29.5913 991.89 29.5913 974.733C29.5913 932.577 72.7364 901.935 111.463 901.935C145.283 901.935 170.533 923.747 191.121 946.791C204.354 961.5 215.138 974.489 215.138 996.301C215.138 1011.75 205.335 1020.08 196.513 1026.21ZM188.915 948.753C168.084 925.222 138.667 899.235 98.4728 906.102C57.2899 915.906 32.5346 942.38 32.5346 974.733C32.5346 1006.35 51.6544 1024 77.1475 1046.06L83.0263 1039.44C41.1134 996.796 83.0263 958.8 114.893 948.259C145.283 939.68 168.814 945.566 177.636 958.062C195.775 982.087 140.386 991.404 146.021 1019.09L171.758 1056.6L179.599 1051.7C166.609 1026.69 212.203 1027.92 212.203 996.301C212.203 979.882 206.811 968.36 188.915 948.753Z" fill="white"/>
</svg>
